<?xml version="1.0" encoding="UTF-8" standalone="no"?>
<!DOCTYPE svg PUBLIC "-//W3C//DTD SVG 1.1//EN" "http://www.w3.org/Graphics/SVG/1.1/DTD/svg11.dtd">
<svg width="100%" height="100%" viewBox="0 0 1024 1024" version="1.1" xmlns="http://www.w3.org/2000/svg" xmlns:xlink="http://www.w3.org/1999/xlink" xml:space="preserve" xmlns:serif="http://www.serif.com/" style="fill-rule:evenodd;clip-rule:evenodd;stroke-linejoin:round;stroke-miterlimit:2;">
    <g transform="matrix(3.61154,0,0,3.61154,-2.25358,39.6599)">
        <path d="M282.39,194.225L282.39,184.63C281.828,179.546 282.39,174.461 280.135,170.513C279.567,165.429 276.744,162.043 276.181,156.959C273.92,154.136 272.795,150.75 271.665,147.359C269.972,146.228 271.665,143.405 270.535,141.712C269.41,141.712 269.41,143.405 268.841,143.967C269.41,147.926 268.274,151.875 267.711,156.397C268.841,160.908 266.018,165.429 266.586,170.513C266.586,172.201 264.325,173.899 266.018,175.024C261.502,183.494 260.939,193.1 255.293,200.434C253.594,205.518 249.078,208.904 246.255,212.295C238.353,214.551 234.394,206.649 228.184,203.826C228.184,199.872 222.538,199.872 220.845,196.486C216.329,191.402 214.068,185.755 210.12,180.67C206.16,173.899 199.951,167.122 198.826,159.22C205.035,152.437 211.807,147.359 218.022,141.144C223.668,137.758 227.622,131.549 232.138,126.465C238.353,120.818 240.04,112.348 237.217,105.008C231.008,98.231 224.236,89.199 214.068,93.147C207.296,94.846 209.551,102.753 206.16,107.264C206.16,112.911 199.389,115.171 199.389,120.818C193.742,124.204 192.043,132.112 185.272,135.498C183.011,133.81 181.318,130.987 181.318,127.595C179.625,123.079 173.979,120.255 174.541,114.609C176.239,113.478 176.802,109.525 180.188,110.655C183.011,115.171 182.449,107.832 186.397,109.525C186.397,107.832 183.573,106.139 182.449,105.008C181.886,104.44 180.188,105.008 180.188,103.316L179.063,103.316C176.802,102.753 176.239,99.93 174.541,97.669C172.28,93.715 170.025,98.231 167.769,98.794C164.378,95.97 164.378,91.459 162.123,88.068L161.555,87.5C160.424,84.677 159.299,81.291 158.164,78.468C155.908,76.207 158.164,73.952 159.862,72.259C163.248,73.384 166.071,69.436 169.457,70.561C174.541,69.436 179.625,69.436 185.272,67.174C187.533,65.482 189.22,63.789 189.22,60.403C187.533,57.012 185.272,52.496 180.75,51.365C178.495,46.849 172.848,47.974 169.457,45.718C168.332,47.974 165.508,45.718 164.946,47.974C160.424,49.11 157.039,52.496 153.653,54.756C148.568,58.142 150.261,51.933 148.006,50.235C145.745,43.463 145.183,37.248 142.921,31.034C144.046,28.778 141.792,26.523 141.223,23.697C139.536,17.485 138.4,11.273 135.577,5.626C132.753,4.498 129.93,2.803 127.106,1.675C123.721,-0.02 119.772,1.11 116.381,1.675C111.302,5.626 103.958,5.626 100.009,10.707C98.873,15.227 101.697,18.616 103.395,22.001C109.604,27.648 113.558,36.118 118.074,42.895C119.205,50.797 127.106,54.188 128.243,61.528C124.851,64.914 121.46,66.612 116.949,66.612C114.688,67.174 111.302,68.305 109.042,67.737C104.52,71.128 97.186,68.305 93.794,72.259C90.971,71.128 87.58,71.696 84.756,71.696C79.678,71.696 76.855,66.612 72.901,66.05C70.64,67.737 68.953,69.436 67.254,71.128C60.482,73.952 54.835,78.468 49.189,83.552C45.797,84.115 43.543,86.938 41.844,89.199C40.151,90.324 40.719,92.584 42.974,93.147C48.621,94.846 50.314,101.617 52.575,105.577C53.137,119.693 53.7,135.498 48.053,148.489C48.053,151.312 44.105,153.005 44.668,156.397C37.896,165.992 31.681,176.16 20.388,181.807C14.173,186.317 7.964,187.454 0.624,189.708C1.754,191.964 4.578,193.1 7.401,193.1C10.225,196.486 15.872,197.048 20.388,197.048C33.936,193.663 45.797,184.062 54.268,172.201C55.398,168.815 59.346,165.429 60.482,161.475C62.738,159.22 62.738,155.829 64.431,153.005C64.993,149.051 66.691,145.103 66.691,141.144C66.691,139.457 67.816,137.196 66.691,136.065C69.515,132.674 63.868,128.726 67.816,125.34C67.254,119.693 68.384,115.171 66.691,109.525C67.254,103.878 67.816,96.539 67.816,90.324C67.816,87.5 65.561,85.245 68.384,82.99C72.338,82.422 74.599,88.068 77.985,88.636C79.11,89.199 80.246,90.324 81.371,88.636C85.892,91.459 92.102,92.584 96.618,89.761C104.52,86.938 112.427,83.552 120.897,82.99C126.544,81.854 129.93,79.598 135.577,79.598C142.921,84.677 142.921,94.283 148.006,101.055C150.261,107.832 141.223,103.316 138.968,106.702C133.321,108.4 129.368,112.911 124.283,115.734C123.158,116.302 121.46,115.734 120.335,116.87C115.251,116.87 111.865,120.818 106.781,121.38C101.697,120.255 97.186,123.641 92.102,122.517C88.148,120.818 86.455,116.87 84.756,113.478C81.933,114.046 81.933,117.432 79.11,117.995C76.287,120.255 80.246,121.949 79.678,124.772C83.631,129.288 87.017,135.498 92.664,137.196C93.794,136.065 94.925,137.196 96.05,137.758L96.618,136.633L98.873,138.889C100.009,139.457 100.572,136.065 101.697,138.321C101.697,138.889 101.134,138.889 101.134,138.889L102.264,138.889C105.088,138.321 107.911,139.457 110.734,137.196C111.865,138.889 113.558,136.633 114.126,138.321C114.126,139.457 113.558,141.144 112.99,141.712C110.734,150.75 105.656,157.521 101.134,164.867C94.362,173.336 90.971,184.062 82.501,191.402C82.501,194.225 79.678,196.486 80.246,199.309C80.808,202.132 83.069,204.394 85.325,204.956C90.403,206.649 94.362,202.695 99.441,201.57C103.395,198.747 107.911,196.486 111.302,193.1C113.558,188.016 118.637,186.885 120.335,181.807C125.419,180.67 126.544,175.592 129.368,171.638C132.753,170.513 132.191,166.554 135.014,164.298C137.275,158.652 141.792,155.261 144.615,149.614C150.261,145.103 153.085,139.457 157.601,134.373C159.299,133.81 160.987,133.242 162.123,135.498C164.378,142.28 171.155,148.489 168.894,156.397C164.378,160.908 160.424,167.69 155.34,172.201C151.392,179.546 145.745,185.755 138.968,190.839C138.968,193.1 141.223,193.663 141.792,195.923C145.745,197.611 150.829,199.872 155.34,198.179C163.248,194.788 169.457,189.708 175.104,182.932C177.364,181.807 179.063,178.415 181.886,178.983C187.533,190.839 194.867,201.57 202.212,212.295C207.296,219.073 211.807,226.98 218.022,232.627C222.538,235.45 223.668,241.097 228.747,241.66C233.831,246.175 237.785,250.129 243.432,252.39C246.823,256.338 251.902,256.338 256.418,258.037C262.064,260.292 268.841,261.985 275.619,259.724C290.86,241.097 280.703,216.812 282.39,194.225Z" style="fill-rule:nonzero;"/>
        <path d="M190.356,34.425C197.69,37.816 203.337,43.463 210.682,47.974C218.022,50.235 219.714,58.142 224.798,62.09C228.747,63.789 233.831,63.789 237.217,60.965C240.608,58.705 244,54.188 242.301,49.672C242.301,45.15 239.478,41.202 237.785,37.248C233.269,28.778 225.923,22.566 218.022,18.616C215.198,15.227 210.12,16.354 206.728,14.096C205.598,15.227 203.337,14.662 202.212,14.096C197.127,15.792 190.918,16.919 188.095,21.439C188.095,25.39 186.397,31.602 190.356,34.425Z" style="fill-rule:nonzero;"/>
    </g>
</svg>
